<svg width="920" height="720" viewBox="0 0 920 720" fill="none" xmlns="http://www.w3.org/2000/svg">
  <rect width="920" height="720" rx="28" fill="#FFFFFF"/>
  <rect x="1" y="1" width="918" height="718" rx="27" stroke="#E7E7E7"/>
  <rect x="56" y="56" width="808" height="64" rx="18" fill="#F8F8F8"/>
  <rect x="84" y="80" width="154" height="16" rx="8" fill="#A3A3A3"/>
  <rect x="702" y="74" width="134" height="28" rx="14" fill="#EEF5DF"/>
  <rect x="56" y="152" width="396" height="500" rx="22" fill="#F8F8F8"/>
  <rect x="88" y="188" width="160" height="18" rx="9" fill="#22281E"/>
  <rect x="88" y="224" width="270" height="12" rx="6" fill="#A3A3A3"/>
  <rect x="88" y="272" width="332" height="160" rx="18" fill="white" stroke="#E7E7E7"/>
  <rect x="112" y="302" width="118" height="14" rx="7" fill="#A3A3A3"/>
  <rect x="112" y="334" width="260" height="12" rx="6" fill="#E7E7E7"/>
  <rect x="112" y="362" width="232" height="12" rx="6" fill="#E7E7E7"/>
  <rect x="112" y="390" width="248" height="12" rx="6" fill="#E7E7E7"/>
  <rect x="88" y="470" width="154" height="24" rx="12" fill="#9EC043"/>
  <rect x="272" y="470" width="148" height="24" rx="12" fill="#EDF5FB"/>
  <rect x="484" y="152" width="380" height="224" rx="22" fill="#22281E"/>
  <rect x="516" y="186" width="144" height="14" rx="7" fill="#9EC043"/>
  <rect x="516" y="220" width="228" height="26" rx="13" fill="white"/>
  <rect x="516" y="278" width="316" height="20" rx="10" fill="#4394C0"/>
  <rect x="516" y="314" width="248" height="18" rx="9" fill="rgba(255,255,255,0.78)"/>
  <rect x="484" y="408" width="380" height="244" rx="22" fill="#F8F8F8"/>
  <rect x="516" y="442" width="180" height="16" rx="8" fill="#A3A3A3"/>
  <rect x="516" y="486" width="312" height="20" rx="10" fill="white"/>
  <circle cx="544" cy="572" r="14" fill="#9EC043"/>
  <rect x="572" y="560" width="168" height="24" rx="12" fill="#FFFFFF"/>
  <circle cx="544" cy="624" r="14" fill="#4394C0"/>
  <rect x="572" y="612" width="208" height="24" rx="12" fill="#FFFFFF"/>
</svg>
