<svg width="1120" height="680" viewBox="0 0 1120 680" fill="none" xmlns="http://www.w3.org/2000/svg">
  <rect width="1120" height="680" rx="28" fill="#F8F8F8"/>
  <rect x="52" y="128" width="206" height="164" rx="24" fill="#FFFFFF" stroke="#E7E7E7"/>
  <rect x="86" y="166" width="92" height="14" rx="7" fill="#A3A3A3"/>
  <rect x="86" y="196" width="128" height="20" rx="10" fill="#22281E"/>
  <rect x="86" y="236" width="142" height="18" rx="9" fill="#EEF5DF"/>
  <rect x="314" y="208" width="110" height="6" rx="3" fill="#9EC043"/>
  <rect x="464" y="84" width="206" height="252" rx="24" fill="#FFFFFF" stroke="#E7E7E7"/>
  <rect x="498" y="124" width="102" height="14" rx="7" fill="#A3A3A3"/>
  <rect x="498" y="156" width="132" height="20" rx="10" fill="#22281E"/>
  <rect x="498" y="208" width="138" height="22" rx="11" fill="#EDF5FB"/>
  <rect x="498" y="246" width="122" height="22" rx="11" fill="#EEF5DF"/>
  <rect x="498" y="284" width="144" height="22" rx="11" fill="#F3F3F3"/>
  <rect x="726" y="208" width="110" height="6" rx="3" fill="#4394C0"/>
  <rect x="862" y="128" width="206" height="164" rx="24" fill="#22281E"/>
  <rect x="896" y="166" width="96" height="14" rx="7" fill="#9EC043"/>
  <rect x="896" y="198" width="134" height="24" rx="12" fill="#FFFFFF"/>
  <rect x="896" y="242" width="114" height="20" rx="10" fill="rgba(255,255,255,0.78)"/>
  <rect x="454" y="430" width="256" height="164" rx="24" fill="#FFFFFF" stroke="#E7E7E7"/>
  <rect x="488" y="468" width="106" height="14" rx="7" fill="#A3A3A3"/>
  <rect x="488" y="500" width="146" height="22" rx="11" fill="#9EC043"/>
  <rect x="488" y="540" width="188" height="18" rx="9" fill="#EDF5FB"/>
</svg>
