<svg width="1080" height="720" viewBox="0 0 1080 720" fill="none" xmlns="http://www.w3.org/2000/svg">
  <defs>
    <linearGradient id="bg" x1="86" y1="86" x2="994" y2="634" gradientUnits="userSpaceOnUse">
      <stop stop-color="#FFFFFF"/>
      <stop offset="1" stop-color="#F5F8EE"/>
    </linearGradient>
    <linearGradient id="scan" x1="214" y1="298" x2="626" y2="334" gradientUnits="userSpaceOnUse">
      <stop stop-color="#4394C0" stop-opacity="0"/>
      <stop offset="0.54" stop-color="#4394C0" stop-opacity="0.2"/>
      <stop offset="1" stop-color="#9EC043" stop-opacity="0.34"/>
    </linearGradient>
    <linearGradient id="panel" x1="684" y1="154" x2="962" y2="582" gradientUnits="userSpaceOnUse">
      <stop stop-color="#20261B"/>
      <stop offset="1" stop-color="#2A3124"/>
    </linearGradient>
    <filter id="shadow" x="102" y="108" width="876" height="510" filterUnits="userSpaceOnUse" color-interpolation-filters="sRGB">
      <feFlood flood-opacity="0" result="BackgroundImageFix"/>
      <feColorMatrix in="SourceAlpha" type="matrix" values="0 0 0 0 0 0 0 0 0 0 0 0 0 0 0 0 0 0 127 0" result="hardAlpha"/>
      <feOffset dy="22"/>
      <feGaussianBlur stdDeviation="22"/>
      <feColorMatrix type="matrix" values="0 0 0 0 0.133333 0 0 0 0 0.156863 0 0 0 0 0.117647 0 0 0 0.12 0"/>
      <feBlend mode="normal" in2="BackgroundImageFix" result="effect1_dropShadow_0_1"/>
      <feBlend mode="normal" in="SourceGraphic" in2="effect1_dropShadow_0_1" result="shape"/>
    </filter>
  </defs>

  <rect x="40" y="40" width="1000" height="640" rx="34" fill="url(#bg)"/>
  <rect x="40.5" y="40.5" width="999" height="639" rx="33.5" stroke="#E5EAE0"/>

  <g filter="url(#shadow)">
    <rect x="146" y="130" width="788" height="422" rx="28" fill="#FFFFFF"/>
    <rect x="146.5" y="130.5" width="787" height="421" rx="27.5" stroke="#E7ECE4"/>

    <rect x="182" y="164" width="428" height="354" rx="24" fill="#F8F8F6" stroke="#E4E9E1"/>
    <rect x="642" y="164" width="256" height="354" rx="24" fill="url(#panel)"/>

    <rect x="214" y="196" width="146" height="30" rx="15" fill="#EDF5FB"/>
    <text x="234" y="216" fill="#286482" font-family="Inter, Arial, sans-serif" font-size="14" font-weight="700">Dokument erkannt</text>

    <text x="214" y="264" fill="#20261B" font-family="Inter, Arial, sans-serif" font-size="30" font-weight="700">Gemeinschaftslizenz</text>
    <rect x="214" y="286" width="240" height="12" rx="6" fill="#D7DED2"/>
    <rect x="214" y="316" width="312" height="12" rx="6" fill="#E5EAE4"/>
    <rect x="214" y="344" width="286" height="12" rx="6" fill="#E5EAE4"/>
    <rect x="214" y="372" width="264" height="12" rx="6" fill="#E5EAE4"/>
    <rect x="214" y="400" width="300" height="12" rx="6" fill="#E5EAE4"/>

    <rect x="198" y="300" width="396" height="58" rx="18" fill="url(#scan)"/>

    <rect x="214" y="304" width="132" height="34" rx="17" fill="#EDF5D7" stroke="#D7E9AA"/>
    <text x="234" y="326" fill="#587218" font-family="Inter, Arial, sans-serif" font-size="14" font-weight="700">Dokumenttyp</text>

    <rect x="454" y="356" width="124" height="34" rx="17" fill="#EDF5D7" stroke="#D7E9AA"/>
    <text x="476" y="378" fill="#587218" font-family="Inter, Arial, sans-serif" font-size="14" font-weight="700">Gültig bis</text>

    <rect x="252" y="430" width="144" height="34" rx="17" fill="#EDF5D7" stroke="#D7E9AA"/>
    <text x="272" y="452" fill="#587218" font-family="Inter, Arial, sans-serif" font-size="14" font-weight="700">Versicherung</text>

    <path d="M594 321C620 321 626 262 656 262" stroke="#B8C6B2" stroke-width="2" stroke-dasharray="6 6"/>
    <path d="M578 373C616 373 624 344 656 344" stroke="#B8C6B2" stroke-width="2" stroke-dasharray="6 6"/>
    <path d="M396 447C592 447 596 426 656 426" stroke="#B8C6B2" stroke-width="2" stroke-dasharray="6 6"/>

    <rect x="674" y="196" width="192" height="32" rx="16" fill="#35422C"/>
    <circle cx="694" cy="212" r="6" fill="#9EC043"/>
    <text x="710" y="217" fill="#F6F8F2" font-family="Inter, Arial, sans-serif" font-size="14" font-weight="700">AI-Prüfung aktiv</text>

    <rect x="674" y="246" width="192" height="76" rx="18" fill="#FFFFFF" fill-opacity="0.08"/>
    <text x="694" y="271" fill="#A6B79F" font-family="Inter, Arial, sans-serif" font-size="13">Dokumenttyp</text>
    <text x="694" y="298" fill="#FFFFFF" font-family="Inter, Arial, sans-serif" font-size="24" font-weight="700">EU-Lizenz</text>
    <text x="802" y="298" fill="#9EC043" font-family="Inter, Arial, sans-serif" font-size="13" font-weight="700">erkannt</text>

    <rect x="674" y="330" width="192" height="76" rx="18" fill="#FFFFFF" fill-opacity="0.08"/>
    <text x="694" y="355" fill="#A6B79F" font-family="Inter, Arial, sans-serif" font-size="13">Gültig bis</text>
    <text x="694" y="382" fill="#FFFFFF" font-family="Inter, Arial, sans-serif" font-size="24" font-weight="700">12.09.2027</text>
    <text x="796" y="382" fill="#9EC043" font-family="Inter, Arial, sans-serif" font-size="13" font-weight="700">bestätigt</text>

    <rect x="674" y="414" width="192" height="76" rx="18" fill="#FFFFFF" fill-opacity="0.08"/>
    <text x="694" y="439" fill="#A6B79F" font-family="Inter, Arial, sans-serif" font-size="13">Versicherung</text>
    <text x="694" y="466" fill="#FFFFFF" font-family="Inter, Arial, sans-serif" font-size="24" font-weight="700">vorhanden</text>
    <text x="789" y="466" fill="#9EC043" font-family="Inter, Arial, sans-serif" font-size="13" font-weight="700">abgeglichen</text>

    <rect x="214" y="478" width="124" height="30" rx="15" fill="#EDF5D7"/>
    <text x="236" y="498" fill="#587218" font-family="Inter, Arial, sans-serif" font-size="13" font-weight="700">OCR 96%</text>
    <rect x="352" y="478" width="138" height="30" rx="15" fill="#EDF5FB"/>
    <text x="374" y="498" fill="#286482" font-family="Inter, Arial, sans-serif" font-size="13" font-weight="700">Plausibilität ok</text>
    <rect x="504" y="478" width="128" height="30" rx="15" fill="#F2F3F0"/>
    <text x="526" y="498" fill="#20261B" font-family="Inter, Arial, sans-serif" font-size="13" font-weight="700">Kein Hinweis</text>
  </g>
</svg>
